<svg version="1.1" xmlns="http://www.w3.org/2000/svg" xmlns:xlink="http://www.w3.org/1999/xlink" role="img" width="706" height="99" viewbox="0 0 706 99"><title>comment-to-code-ratio</title><desc>Generated by logo.svg, https://github.com/bubkoo/logo.svg</desc><path d="M29.44 42.25Q28.07 43.62 26.70 43.62Q25.34 43.62 24.51 42.43Q23.68 41.24 23.18 39.84Q22.67 38.43 21.34 37.24Q20.01 36.06 17.99 36.06Q15.18 36.34 12.88 40.05Q10.58 43.76 9.50 48.22Q8.42 52.69 8.42 56.61Q8.42 60.54 10.61 63.38Q12.81 66.22 16.55 66.22Q20.87 66.22 23.46 63.20Q24.54 61.90 25.48 60.61Q27.78 57.58 29.66 57.58Q30.30 57.58 31.53 57.94Q31.53 60.61 26.67 64.96Q21.81 69.32 16.12 69.32Q10.43 69.32 7.16 65.68Q3.88 62.05 3.88 56.29Q3.88 48.87 7.48 41.46Q9.28 37.86 12.38 35.52Q15.47 33.18 19.29 33.18Q23.10 33.18 25.44 35.73Q27.78 38.29 29.44 42.25ZM39.84 39.37Q39.84 39.37 41.66 36.56Q43.48 33.75 50.39 33.75Q57.30 33.75 61.44 39.37Q65.58 44.98 65.58 52.15Q65.58 59.31 61.05 64.28Q56.51 69.25 49.53 69.25Q42.54 69.25 39.38 65.32Q36.21 61.40 36.21 54.27Q36.21 44.98 39.84 39.37M43.01 43.15Q43.01 43.15 42.53 44.57Q42.04 45.99 41.57 48.80Q41.10 51.61 41.10 54.02Q41.10 56.43 41.46 58.41Q41.82 60.39 42.69 62.30Q43.55 64.21 45.28 65.32Q47.01 66.44 49.38 66.44Q54.21 66.44 57.48 62.48Q60.76 58.52 60.76 52.90Q60.76 47.29 57.77 42.00Q54.78 36.70 50.46 36.70Q47.87 36.70 45.93 38.50Q43.98 40.30 43.01 43.15ZM76.02 37.78Q76.82 37.78 76.82 47.29Q76.82 48.80 76.78 52.11Q76.74 55.42 76.74 55.57Q77.46 47.43 78.22 44.48Q78.98 41.53 79.77 39.40Q80.56 37.28 81.50 36.13Q83.80 33.18 86.82 33.18Q90.64 33.18 92.55 36.99Q94.46 40.81 94.53 47.14Q96.33 34.11 104.03 34.11Q107.34 34.11 108.71 37.50Q110.08 40.88 110.08 45.56L109.86 56.50Q109.86 67.30 114.54 67.30L118.65 66.66Q119.01 66.66 119.37 66.73Q118.65 67.81 116.70 68.42Q114.76 69.03 112.89 69.03Q109.22 69.03 107.38 65.76Q105.54 62.48 105.40 58.84Q105.26 55.21 105.26 52.62L105.40 46.21Q105.40 43.04 105.00 40.16Q104.61 37.28 102.95 37.28Q100.50 37.28 98.24 47.54Q95.97 57.80 95.46 67.02Q94.24 68.31 92.37 68.38Q91.79 68.38 91.29 68.17Q90.64 64.42 90.60 55.68Q90.57 46.93 89.70 41.74Q88.84 36.56 85.82 36.56Q83.80 36.56 82.50 41.02Q80.42 48.01 78.76 62.77Q78.33 66.22 78.11 67.74Q76.60 69.03 75.02 69.03L73.94 68.89Q72.93 56.86 72.93 39.08Q73.72 37.78 76.02 37.78ZM124.12 37.78Q124.91 37.78 124.91 47.29Q124.91 48.80 124.88 52.11Q124.84 55.42 124.84 55.57Q125.56 47.43 126.32 44.48Q127.07 41.53 127.86 39.40Q128.66 37.28 129.59 36.13Q131.90 33.18 134.92 33.18Q138.74 33.18 140.64 36.99Q142.55 40.81 142.62 47.14Q144.42 34.11 152.13 34.11Q155.44 34.11 156.81 37.50Q158.18 40.88 158.18 45.56L157.96 56.50Q157.96 67.30 162.64 67.30L166.74 66.66Q167.10 66.66 167.46 66.73Q166.74 67.81 164.80 68.42Q162.86 69.03 160.98 69.03Q157.31 69.03 155.48 65.76Q153.64 62.48 153.50 58.84Q153.35 55.21 153.35 52.62L153.50 46.21Q153.50 43.04 153.10 40.16Q152.70 37.28 151.05 37.28Q148.60 37.28 146.33 47.54Q144.06 57.80 143.56 67.02Q142.34 68.31 140.46 68.38Q139.89 68.38 139.38 68.17Q138.74 64.42 138.70 55.68Q138.66 46.93 137.80 41.74Q136.94 36.56 133.91 36.56Q131.90 36.56 130.60 41.02Q128.51 48.01 126.86 62.77Q126.42 66.22 126.21 67.74Q124.70 69.03 123.11 69.03L122.03 68.89Q121.02 56.86 121.02 39.08Q121.82 37.78 124.12 37.78ZM172.50 54.63Q172.36 56.07 172.36 56.58Q172.36 60.90 174.99 63.27Q177.62 65.65 181.22 65.65Q184.82 65.65 187.08 64.64Q189.35 63.63 190.36 62.48Q192.95 59.24 195.11 59.24Q195.90 59.24 196.98 59.67Q196.26 63.20 191.55 66.12Q186.83 69.03 179.70 69.03Q174.66 69.03 171.03 65.83Q167.39 62.62 167.39 57.08Q167.39 51.54 169.59 46.32Q171.78 41.10 175.92 37.39Q180.06 33.68 184.35 33.68Q188.63 33.68 191.26 35.44Q193.89 37.21 193.89 40.59Q193.89 46.86 188.31 50.92Q182.73 54.99 176.46 54.99Q174.81 54.99 172.50 54.63M177.98 52.26Q181.36 52.26 184.02 50.10Q186.69 47.94 187.80 45.56Q188.92 43.18 188.92 41.24Q188.92 39.30 187.41 37.82Q185.90 36.34 183.88 36.34Q180.28 36.34 177.22 41.31Q174.16 46.28 172.86 51.61Q176.03 52.26 177.98 52.26ZM232.48 67.23Q231.18 68.60 229.53 68.60Q226.43 68.60 224.92 65.29Q223.41 61.98 223.16 57.22Q222.90 52.47 222.83 47.72Q222.76 42.97 222.08 39.66Q221.39 36.34 219.52 36.34Q217.00 36.34 215.24 40.88Q213.47 45.42 212.75 50.96Q210.74 66.44 208.86 68.31Q207.57 68.96 206.63 68.96Q205.70 68.96 205.05 68.74Q203.54 62.12 203.10 45.92Q202.96 37.86 202.82 35.48Q204.33 34.47 205.41 34.47Q206.49 34.47 207.14 34.69Q207.50 37.78 207.53 47.36Q207.57 56.94 207.64 58.38Q208.00 56.86 208.54 53.48Q209.08 50.10 209.51 47.90Q209.94 45.70 210.88 42.75Q211.82 39.80 212.97 38.04Q214.12 36.27 216.14 35.01Q218.15 33.75 220.67 33.75Q224.06 33.75 225.60 36.81Q227.15 39.87 227.30 44.41Q227.44 48.94 227.48 53.62Q227.51 58.30 228.63 62.19Q229.74 66.08 232.48 67.23ZM237.23 39.08Q233.99 39.08 232.84 37.50Q232.84 36.34 233.81 35.70Q234.78 35.05 235.94 34.87Q237.09 34.69 239.68 34.54Q239.90 32.60 239.93 29.54Q239.97 26.48 240.04 24.32Q240.26 18.63 241.77 17.34Q242.42 16.76 243.17 16.76Q243.93 16.76 244.50 16.90Q244.72 22.09 244.72 23.17L244.29 33.97Q244.43 34.04 245.08 34.04L250.26 33.82Q255.88 33.82 255.88 35.55Q255.88 38 253.86 38.43Q252.93 38.65 251.67 38.65Q250.41 38.65 248.43 38.32Q246.45 38 245.58 38Q244.72 38 244.43 38.07Q244.22 40.16 244.22 42.21Q244.22 44.26 244.32 47.32Q244.43 50.38 244.90 54.63Q245.37 58.88 246.95 61.94Q248.54 65 250.98 65Q252.21 65 253.86 64.03Q255.52 63.06 256.42 63.06Q257.32 63.06 258.00 63.45Q258.69 63.85 258.69 64.35Q258.69 65.86 255.63 67.27Q252.57 68.67 250.41 68.67Q242.49 68.67 240.54 53.70Q239.97 49.38 239.68 38.86Q238.53 39.08 237.23 39.08ZM265.67 47.79L279.50 48.30Q284.25 48.30 286.30 47.90Q288.35 47.50 288.78 47.50Q291.02 47.50 291.02 48.66Q291.02 50.24 288.53 51.10Q286.05 51.97 282.77 52.08Q279.50 52.18 277.62 52.18Q275.75 52.18 273.34 52.15Q270.93 52.11 267.26 51.86Q263.58 51.61 263.01 51.61Q260.99 51.61 260.99 50.82Q260.99 49.59 263.66 48.37Q264.88 47.79 265.67 47.79ZM299.94 39.08Q296.70 39.08 295.55 37.50Q295.55 36.34 296.52 35.70Q297.50 35.05 298.65 34.87Q299.80 34.69 302.39 34.54Q302.61 32.60 302.64 29.54Q302.68 26.48 302.75 24.32Q302.97 18.63 304.48 17.34Q305.13 16.76 305.88 16.76Q306.64 16.76 307.22 16.90Q307.43 22.09 307.43 23.17L307 33.97Q307.14 34.04 307.79 34.04L312.98 33.82Q318.59 33.82 318.59 35.55Q318.59 38 316.58 38.43Q315.64 38.65 314.38 38.65Q313.12 38.65 311.14 38.32Q309.16 38 308.30 38Q307.43 38 307.14 38.07Q306.93 40.16 306.93 42.21Q306.93 44.26 307.04 47.32Q307.14 50.38 307.61 54.63Q308.08 58.88 309.66 61.94Q311.25 65 313.70 65Q314.92 65 316.58 64.03Q318.23 63.06 319.13 63.06Q320.03 63.06 320.72 63.45Q321.40 63.85 321.40 64.35Q321.40 65.86 318.34 67.27Q315.28 68.67 313.12 68.67Q305.20 68.67 303.26 53.70Q302.68 49.38 302.39 38.86Q301.24 39.08 299.94 39.08ZM328.13 39.37Q328.13 39.37 329.95 36.56Q331.77 33.75 338.68 33.75Q345.59 33.75 349.73 39.37Q353.87 44.98 353.87 52.15Q353.87 59.31 349.34 64.28Q344.80 69.25 337.82 69.25Q330.83 69.25 327.66 65.32Q324.50 61.40 324.50 54.27Q324.50 44.98 328.13 39.37M331.30 43.15Q331.30 43.15 330.81 44.57Q330.33 45.99 329.86 48.80Q329.39 51.61 329.39 54.02Q329.39 56.43 329.75 58.41Q330.11 60.39 330.98 62.30Q331.84 64.21 333.57 65.32Q335.30 66.44 337.67 66.44Q342.50 66.44 345.77 62.48Q349.05 58.52 349.05 52.90Q349.05 47.29 346.06 42.00Q343.07 36.70 338.75 36.70Q336.16 36.70 334.22 38.50Q332.27 40.30 331.30 43.15ZM365.97 47.79L379.79 48.30Q384.54 48.30 386.60 47.90Q388.65 47.50 389.08 47.50Q391.31 47.50 391.31 48.66Q391.31 50.24 388.83 51.10Q386.34 51.97 383.07 52.08Q379.79 52.18 377.92 52.18Q376.05 52.18 373.64 52.15Q371.22 52.11 367.55 51.86Q363.88 51.61 363.30 51.61Q361.29 51.61 361.29 50.82Q361.29 49.59 363.95 48.37Q365.18 47.79 365.97 47.79ZM424.36 42.25Q422.99 43.62 421.62 43.62Q420.26 43.62 419.43 42.43Q418.60 41.24 418.10 39.84Q417.59 38.43 416.26 37.24Q414.93 36.06 412.91 36.06Q410.10 36.34 407.80 40.05Q405.50 43.76 404.42 48.22Q403.34 52.69 403.34 56.61Q403.34 60.54 405.53 63.38Q407.73 66.22 411.47 66.22Q415.79 66.22 418.38 63.20Q419.46 61.90 420.40 60.61Q422.70 57.58 424.58 57.58Q425.22 57.58 426.45 57.94Q426.45 60.61 421.59 64.96Q416.73 69.32 411.04 69.32Q405.35 69.32 402.08 65.68Q398.80 62.05 398.80 56.29Q398.80 48.87 402.40 41.46Q404.20 37.86 407.30 35.52Q410.39 33.18 414.21 33.18Q418.02 33.18 420.36 35.73Q422.70 38.29 424.36 42.25ZM434.76 39.37Q434.76 39.37 436.58 36.56Q438.40 33.75 445.31 33.75Q452.22 33.75 456.36 39.37Q460.50 44.98 460.50 52.15Q460.50 59.31 455.97 64.28Q451.43 69.25 444.45 69.25Q437.46 69.25 434.30 65.32Q431.13 61.40 431.13 54.27Q431.13 44.98 434.76 39.37M437.93 43.15Q437.93 43.15 437.45 44.57Q436.96 45.99 436.49 48.80Q436.02 51.61 436.02 54.02Q436.02 56.43 436.38 58.41Q436.74 60.39 437.61 62.30Q438.47 64.21 440.20 65.32Q441.93 66.44 444.30 66.44Q449.13 66.44 452.40 62.48Q455.68 58.52 455.68 52.90Q455.68 47.29 452.69 42.00Q449.70 36.70 445.38 36.70Q442.79 36.70 440.85 38.50Q438.90 40.30 437.93 43.15ZM494.63 11.58Q491.90 36.34 491.90 46.89Q491.90 57.44 493.84 67.95Q492.40 69.39 491.32 69.39Q490.24 69.39 489.52 69.10Q488.01 63.78 487.72 57.51Q485.99 60.25 485.16 61.40Q484.34 62.55 482.32 64.78Q478.65 69.10 473.61 69.10Q469.79 69.10 468.10 65.54Q466.41 61.98 466.41 56.40Q466.41 50.82 467.67 45.74Q468.93 40.66 472.02 36.96Q475.12 33.25 479.66 33.25Q482.39 33.25 484.70 34.40Q487.00 35.55 487.86 37.50Q488.01 35.55 488.15 31.52Q488.30 27.49 488.48 24.36Q488.66 21.22 489.09 17.98Q489.88 11.07 492.62 11.07Q493.55 11.07 494.63 11.58M486.24 40.09Q486.24 40.09 485.79 39.30Q485.34 38.50 483.83 37.75Q482.32 36.99 479.84 36.99Q477.35 36.99 475.19 39.80Q470.94 45.34 470.94 55.86Q470.94 59.24 472.02 62.59Q473.10 65.94 475.19 65.94Q478.22 65.94 481.10 61.98Q483.98 58.02 485.56 52.87Q487.14 47.72 487.14 43.62Q487.14 41.67 486.24 40.09ZM505.29 54.63Q505.14 56.07 505.14 56.58Q505.14 60.90 507.77 63.27Q510.40 65.65 514.00 65.65Q517.60 65.65 519.87 64.64Q522.14 63.63 523.14 62.48Q525.74 59.24 527.90 59.24Q528.69 59.24 529.77 59.67Q529.05 63.20 524.33 66.12Q519.62 69.03 512.49 69.03Q507.45 69.03 503.81 65.83Q500.18 62.62 500.18 57.08Q500.18 51.54 502.37 46.32Q504.57 41.10 508.71 37.39Q512.85 33.68 517.13 33.68Q521.42 33.68 524.04 35.44Q526.67 37.21 526.67 40.59Q526.67 46.86 521.09 50.92Q515.51 54.99 509.25 54.99Q507.59 54.99 505.29 54.63M510.76 52.26Q514.14 52.26 516.81 50.10Q519.47 47.94 520.59 45.56Q521.70 43.18 521.70 41.24Q521.70 39.30 520.19 37.82Q518.68 36.34 516.66 36.34Q513.06 36.34 510.00 41.31Q506.94 46.28 505.65 51.61Q508.82 52.26 510.76 52.26ZM539.20 47.79L553.02 48.30Q557.78 48.30 559.83 47.90Q561.88 47.50 562.31 47.50Q564.54 47.50 564.54 48.66Q564.54 50.24 562.06 51.10Q559.58 51.97 556.30 52.08Q553.02 52.18 551.15 52.18Q549.28 52.18 546.87 52.15Q544.46 52.11 540.78 51.86Q537.11 51.61 536.54 51.61Q534.52 51.61 534.52 50.82Q534.52 49.59 537.18 48.37Q538.41 47.79 539.20 47.79ZM580.46 62.19L580.67 66.30Q580.67 67.88 579.77 68.49Q578.87 69.10 577.97 69.10Q577.07 69.10 576.14 68.82Q574.55 60.46 573.72 48.01Q572.90 35.55 572.75 33.90Q573.83 32.89 575.02 32.89Q576.21 32.89 577.14 33.18Q577.43 35.26 577.58 42.39Q577.72 49.52 577.94 51.32Q578.94 45.27 581.54 40.02Q582.98 37.06 585.32 35.30Q587.66 33.54 590.36 33.54Q593.06 33.54 595.32 35.95Q597.59 38.36 597.59 40.30Q597.59 41.02 596.73 41.42Q595.86 41.82 594.82 41.82Q593.78 41.82 593.20 41.02Q592.62 40.23 592.41 39.26Q592.19 38.29 591.47 37.50Q590.75 36.70 589.53 36.70Q586.29 36.70 583.98 42.54Q580.46 51.25 580.46 62.19ZM623.94 48.51L623.58 56.79Q623.58 63.06 625.02 65.22Q625.89 66.66 627.40 66.66Q627.83 66.66 628.62 66.44Q630.14 66.01 631.14 66.87Q630.64 69.39 626.10 69.39Q623.01 69.39 622.00 66.80Q621.21 64.86 620.85 61.94Q620.49 59.02 620.27 57.94Q615.59 66.87 611.20 68.82Q608.97 69.82 606.02 69.82Q603.06 69.82 601.44 66.98Q599.82 64.14 599.82 58.66Q599.82 53.19 601.62 47.18Q603.42 41.17 606.88 37.03Q610.34 32.89 614.44 32.89Q620.34 32.89 622.29 37.78Q623.94 41.96 623.94 48.51M606.30 46.17Q606.30 46.17 605.80 48.13Q605.30 50.10 604.79 53.59Q604.29 57.08 604.29 59.78Q604.29 62.48 605.40 64.42Q606.52 66.37 608.32 66.37Q612.21 66.37 615.81 59.02Q619.41 51.68 619.41 45.34Q619.41 41.24 617.25 38.58Q615.81 36.85 613.47 36.85Q611.13 36.85 609.22 39.55Q607.31 42.25 606.30 46.17ZM633.59 39.08Q630.35 39.08 629.20 37.50Q629.20 36.34 630.17 35.70Q631.14 35.05 632.30 34.87Q633.45 34.69 636.04 34.54Q636.26 32.60 636.29 29.54Q636.33 26.48 636.40 24.32Q636.62 18.63 638.13 17.34Q638.78 16.76 639.53 16.76Q640.29 16.76 640.86 16.90Q641.08 22.09 641.08 23.17L640.65 33.97Q640.79 34.04 641.44 34.04L646.62 33.82Q652.24 33.82 652.24 35.55Q652.24 38 650.22 38.43Q649.29 38.65 648.03 38.65Q646.77 38.65 644.79 38.32Q642.81 38 641.94 38Q641.08 38 640.79 38.07Q640.58 40.16 640.58 42.21Q640.58 44.26 640.68 47.32Q640.79 50.38 641.26 54.63Q641.73 58.88 643.31 61.94Q644.90 65 647.34 65Q648.57 65 650.22 64.03Q651.88 63.06 652.78 63.06Q653.68 63.06 654.36 63.45Q655.05 63.85 655.05 64.35Q655.05 65.86 651.99 67.27Q648.93 68.67 646.77 68.67Q638.85 68.67 636.90 53.70Q636.33 49.38 636.04 38.86Q634.89 39.08 633.59 39.08ZM664.41 16.26Q664.34 17.91 664.34 19.93Q664.34 21.94 664.55 24.10Q663.54 25.26 661.82 25.26Q659.66 25.26 659.66 21.80Q659.66 21.66 659.66 20.72Q659.66 19.78 659.69 19.03Q659.73 18.27 659.94 17.26Q660.45 15.54 662.18 15.54Q663.90 15.54 664.41 16.26M659.80 51.54Q659.80 37.42 661.24 35.26Q661.74 34.47 662.46 34.47Q663.18 34.47 664.84 35.26Q664.48 41.38 664.48 48.58Q664.48 48.58 664.62 64.50Q664.62 66.73 663.65 67.63Q662.68 68.53 661.85 68.53Q661.02 68.53 660.16 68.10Q659.80 58.74 659.80 51.54ZM676.18 39.37Q676.18 39.37 678.00 36.56Q679.82 33.75 686.73 33.75Q693.64 33.75 697.78 39.37Q701.92 44.98 701.92 52.15Q701.92 59.31 697.38 64.28Q692.85 69.25 685.86 69.25Q678.88 69.25 675.71 65.32Q672.54 61.40 672.54 54.27Q672.54 44.98 676.18 39.37M679.35 43.15Q679.35 43.15 678.86 44.57Q678.38 45.99 677.91 48.80Q677.44 51.61 677.44 54.02Q677.44 56.43 677.80 58.41Q678.16 60.39 679.02 62.30Q679.89 64.21 681.62 65.32Q683.34 66.44 685.72 66.44Q690.54 66.44 693.82 62.48Q697.10 58.52 697.10 52.90Q697.10 47.29 694.11 42.00Q691.12 36.70 686.80 36.70Q684.21 36.70 682.26 38.50Q680.32 40.30 679.35 43.15Z"></path></svg>